<?xml version="1.0" standalone="no"?>
<!DOCTYPE svg PUBLIC "-//W3C//DTD SVG 20010904//EN"
 "http://www.w3.org/TR/2001/REC-SVG-20010904/DTD/svg10.dtd">
<svg version="1.0" xmlns="http://www.w3.org/2000/svg"
 width="512.000000pt" height="512.000000pt" viewBox="0 0 512.000000 512.000000"
 preserveAspectRatio="xMidYMid meet">
<metadata>
Created by potrace 1.11, written by Peter Selinger 2001-2013
</metadata>
<g transform="translate(0.000000,512.000000) scale(0.100000,-0.100000)"
fill="#000000" stroke="none">
<path d="M1288 3533 c-9 -10 -111 -244 -227 -520 -116 -277 -231 -543 -255
-591 -46 -91 -63 -107 -126 -114 -19 -2 -26 -10 -28 -29 l-3 -26 211 0 211 0
-3 26 c-3 22 -10 27 -45 33 -95 16 -112 54 -73 165 49 143 309 748 322 751 10
2 53 -96 146 -325 149 -372 192 -490 192 -533 0 -33 -23 -50 -80 -59 -28 -5
-36 -11 -38 -32 l-3 -26 241 0 241 1 -3 25 c-2 21 -10 27 -43 33 -67 13 -84
28 -120 103 -18 38 -129 310 -245 603 -193 485 -213 532 -234 532 -13 0 -30
-8 -38 -17z"/>
<path d="M3306 3499 c-4 -24 -12 -85 -20 -136 -14 -99 -10 -113 30 -113 17 0
25 10 39 52 38 117 68 132 264 127 158 -5 156 -3 166 -122 12 -147 2 -949 -13
-974 -9 -16 -28 -25 -72 -34 -55 -11 -60 -14 -60 -38 l0 -26 232 2 233 2 3 24
c3 21 -3 25 -53 36 -30 7 -61 19 -69 27 -24 23 -28 119 -24 601 3 428 4 464
21 480 15 15 39 19 150 21 79 2 147 -1 170 -8 42 -12 78 -59 98 -127 9 -33 17
-43 34 -43 40 0 42 14 23 152 -10 72 -20 133 -22 135 -2 3 -37 -1 -78 -7 -80
-13 -957 -9 -1015 5 -31 7 -32 6 -37 -36z"/>
<path d="M2065 3509 c-9 -28 -1 -34 67 -48 31 -7 62 -19 70 -28 10 -13 14
-117 16 -502 2 -267 1 -509 -3 -538 -6 -48 -8 -52 -46 -67 -22 -9 -53 -16 -69
-16 -27 0 -30 -3 -30 -32 l0 -33 247 2 248 2 3 24 c3 22 -2 25 -58 36 -35 7
-71 22 -88 36 l-27 23 0 234 0 233 50 3 c88 6 104 -9 285 -268 88 -126 173
-212 260 -262 72 -42 182 -71 256 -66 44 3 49 5 52 29 3 24 -2 28 -41 37 -134
34 -353 264 -466 489 l-30 61 52 30 c67 38 132 109 164 178 21 47 25 66 21
132 -6 128 -66 218 -185 276 -105 52 -134 56 -450 56 -288 0 -292 0 -298 -21z
m625 -90 c56 -25 77 -44 103 -94 26 -51 34 -168 16 -232 -15 -55 -73 -118
-133 -147 -52 -25 -218 -20 -260 8 l-28 18 4 218 c2 156 7 223 15 231 33 33
206 31 283 -2z"/>
<path d="M927 1985 c-54 -37 -67 -70 -67 -169 0 -81 2 -87 30 -120 56 -63 157
-83 235 -45 37 18 48 46 14 34 -13 -4 -49 -10 -80 -12 -105 -8 -159 44 -159
153 0 68 25 118 70 142 34 18 129 10 145 -11 18 -24 32 -21 38 8 6 36 -16 45
-110 45 -67 0 -84 -4 -116 -25z"/>
<path d="M1258 1985 c-68 -46 -99 -165 -64 -248 20 -50 78 -95 131 -103 152
-22 268 124 210 264 -34 79 -86 112 -177 112 -51 0 -71 -5 -100 -25z m173 -28
c67 -44 88 -140 49 -217 -49 -96 -186 -95 -235 0 -24 46 -19 140 8 181 42 62
116 78 178 36z"/>
<path d="M1590 1997 l25 -13 0 -159 c0 -156 -1 -160 -22 -170 -45 -19 -21 -25
102 -25 123 0 125 0 131 24 3 13 4 35 2 47 -4 24 -5 24 -16 -3 -11 -27 -15
-28 -77 -28 l-65 0 0 160 c0 157 0 161 23 170 16 6 2 9 -53 9 -67 1 -72 -1
-50 -12z"/>
<path d="M1850 1997 c25 -12 25 -14 28 -167 l3 -155 -28 -22 -28 -23 127 0
c126 0 128 0 134 24 3 13 4 35 2 47 -4 24 -5 24 -16 -3 -11 -27 -15 -28 -77
-28 l-65 0 0 160 c0 157 0 161 23 170 16 6 2 9 -53 9 -67 1 -72 -1 -50 -12z"/>
<path d="M2178 1985 c-66 -45 -98 -160 -67 -242 44 -118 210 -150 300 -58 57
58 74 140 44 213 -34 79 -86 112 -177 112 -51 0 -71 -5 -100 -25z m189 -36
c75 -69 69 -211 -11 -260 -43 -26 -115 -25 -150 2 -40 31 -56 71 -56 137 0 65
25 116 70 140 38 20 115 10 147 -19z"/>
<path d="M2580 1985 c-71 -50 -102 -164 -66 -248 17 -41 80 -97 109 -97 22 0
22 -1 -3 -20 l-25 -19 50 5 c41 5 64 1 116 -20 78 -31 106 -32 139 -6 l25 20
-46 0 c-25 0 -67 7 -94 16 l-48 17 36 19 c101 51 127 207 50 299 -38 44 -74
59 -145 59 -50 -1 -70 -6 -98 -25z m186 -36 c38 -35 54 -72 54 -124 0 -99 -49
-155 -135 -155 -88 0 -135 54 -135 155 0 67 19 109 63 136 43 27 117 21 153
-12z"/>
<path d="M2890 1997 c24 -12 25 -16 30 -147 3 -83 10 -144 18 -158 43 -74 178
-81 237 -11 24 29 25 37 25 149 0 127 8 166 37 173 10 3 -13 5 -52 5 -50 1
-64 -2 -48 -8 29 -12 36 -55 31 -181 -4 -96 -5 -103 -31 -125 -39 -34 -108
-33 -142 1 -24 23 -25 29 -25 160 0 131 1 136 23 145 16 6 2 9 -53 9 -67 1
-72 -1 -50 -12z"/>
<path d="M3288 1994 c21 -15 22 -21 22 -175 l0 -159 -25 -10 c-40 -15 -30 -20
45 -20 67 0 93 12 50 23 -19 5 -20 14 -20 171 0 163 0 167 23 176 16 6 4 9
-48 9 -66 1 -68 0 -47 -15z"/>
<path d="M3438 1994 c21 -14 22 -22 22 -135 0 -169 21 -209 116 -225 55 -8
107 10 139 47 23 29 25 38 25 139 0 134 7 169 34 180 14 6 -1 9 -49 9 -50 0
-64 -3 -48 -9 29 -12 36 -55 31 -181 -4 -96 -5 -103 -31 -125 -39 -34 -108
-33 -142 1 -24 23 -25 29 -25 158 0 129 1 134 23 145 18 9 10 11 -48 11 -66 1
-68 0 -47 -15z"/>
<path d="M3839 1999 l24 -9 -7 -128 c-10 -182 -14 -201 -45 -215 -24 -11 -20
-12 38 -15 67 -3 87 3 58 19 -14 8 -17 25 -16 102 0 51 3 110 7 132 7 39 8 38
59 -100 39 -107 55 -140 68 -140 13 0 32 36 74 145 l56 145 7 -55 c3 -30 6
-94 7 -142 1 -82 0 -88 -19 -88 -11 0 -20 -4 -20 -10 0 -6 30 -10 70 -10 72 0
87 8 48 25 -26 11 -33 54 -39 230 -4 97 -4 99 21 112 23 12 21 13 -31 13 l-56
0 -12 -42 c-31 -104 -94 -250 -102 -237 -5 8 -29 74 -55 147 l-47 132 -56 -1
c-46 0 -52 -2 -32 -10z"/>
</g>
</svg>
